<?xml version="1.0" encoding="utf-8"?>
<!-- Generator: Adobe Illustrator 23.0.0, SVG Export Plug-In . SVG Version: 6.00 Build 0)  -->
<svg version="1.1" id="Layer_1" xmlns="http://www.w3.org/2000/svg" xmlns:xlink="http://www.w3.org/1999/xlink" x="0px" y="0px"
	 viewBox="0 0 72 72" style="enable-background:new 0 0 72 72;" xml:space="preserve">
<style type="text/css">
	.st0{fill:none;}
	.st1{display:none;fill:none;}
	.st2{fill:#E40000;}
	.st3{fill:none;stroke:#FF0000;stroke-miterlimit:10;}
</style>
<rect class="st0" width="72" height="72"/>
<path class="st1" d="M54.6,72H17.4C7.79,72,0,64.21,0,54.6V17.4C0,7.79,7.79,0,17.4,0H54.6C64.21,0,72,7.79,72,17.4V54.6
	C72,64.21,64.21,72,54.6,72z"/>
<path class="st2" d="M31.95,70.57c-0.13,0-0.26-0.01-0.39-0.04c-0.65-0.12-1.19-0.52-1.5-1.1L30,69.33
	c-0.01-0.02-0.02-0.04-0.03-0.06L18.94,35.16l-0.3-0.98c-0.01-0.04-0.03-0.09-0.05-0.15l-6.66-21.92c-0.41-1.34,0.02-2.8,1.09-3.71
	c0.64-0.54,1.45-0.84,2.29-0.84c0.53,0,1.07,0.12,1.54,0.36L25.22,12l8.11-9.35c0.67-0.77,1.64-1.22,2.66-1.22
	c1.02,0,2,0.44,2.67,1.22L46.78,12l8.37-4.07c0.48-0.23,1.01-0.36,1.54-0.36c0.84,0,1.65,0.3,2.29,0.84
	c1.07,0.91,1.49,2.37,1.08,3.71l-5.99,19.68l-0.95,3.29l-2.94,9.65c-0.15,0.56-0.54,1.05-1.07,1.32c-0.31,0.16-0.65,0.24-0.99,0.24
	l0,0c-0.24,0-0.48-0.04-0.71-0.12l-1.47-0.48l-0.3,3.59c0,0.46-0.17,0.94-0.48,1.32L33.59,69.82c-0.02,0.03-0.04,0.06-0.07,0.08
	l-0.17,0.15C32.96,70.39,32.46,70.57,31.95,70.57z M32.34,62.27l8.06-13.8L40.75,39c0.05-0.27,0.18-0.45,0.38-0.56
	c0.11-0.06,0.23-0.09,0.36-0.09c0.09,0,0.18,0.02,0.27,0.05l4.66,1.65l2.29-7.43l-24.46,3.12L32.34,62.27z M22.88,31.24l27.32-3.59
	l4.1-13.49l-6.89,3.35c-0.3,0.15-0.63,0.22-0.96,0.22c-0.64,0-1.25-0.28-1.66-0.76L36,6.85l-8.79,10.13
	c-0.42,0.48-1.02,0.76-1.66,0.76c-0.34,0-0.66-0.07-0.96-0.22l-6.89-3.35L22.88,31.24z"/>
<rect x="-168.36" y="-28" class="st0" width="128" height="128"/>
<path class="st2" d="M-110.9,91.81c-0.21,0-0.42-0.02-0.63-0.06c-1.04-0.2-1.93-0.84-2.42-1.77l-0.1-0.18
	c-0.02-0.03-0.03-0.06-0.04-0.09l-17.81-55.05l-0.48-1.58c-0.02-0.07-0.05-0.15-0.08-0.24l-10.75-35.39
	c-0.66-2.17,0.03-4.52,1.75-5.99c1.03-0.88,2.34-1.36,3.7-1.36c0.86,0,1.72,0.2,2.49,0.58l13.52,6.58l13.1-15.1
	c1.08-1.25,2.65-1.96,4.3-1.96c1.65,0,3.22,0.72,4.3,1.96l13.09,15.1l13.52-6.58c0.77-0.38,1.63-0.57,2.49-0.57
	c1.35,0,2.67,0.48,3.7,1.36c1.72,1.47,2.41,3.82,1.75,5.99l-9.67,31.77l-1.54,5.31l-4.75,15.58c-0.25,0.91-0.88,1.69-1.73,2.13
	c-0.49,0.26-1.05,0.39-1.6,0.39l0,0c-0.39,0-0.78-0.07-1.15-0.2l-2.38-0.77l-0.49,5.8c0,0.75-0.27,1.52-0.77,2.13l-18.67,30.97
	c-0.03,0.05-0.07,0.1-0.11,0.13l-0.27,0.23C-109.27,91.51-110.07,91.81-110.9,91.81z M-110.27,78.41l13.01-22.27l0.58-15.3
	c0.08-0.44,0.3-0.73,0.61-0.9c0.17-0.1,0.37-0.15,0.57-0.15c0.15,0,0.29,0.03,0.43,0.08l7.52,2.66l3.69-12l-39.49,5.04
	L-110.27,78.41z M-125.54,28.32l44.1-5.8l6.61-21.77l-11.11,5.41c-0.49,0.24-1.01,0.36-1.55,0.36c-1.03,0-2.01-0.45-2.68-1.23
	l-14.18-16.35l-14.18,16.35c-0.68,0.78-1.65,1.22-2.68,1.22c-0.54,0-1.07-0.12-1.55-0.36l-11.12-5.41L-125.54,28.32z"/>
<circle class="st3" cx="-104.36" cy="36" r="64"/>
</svg>
