<?xml version="1.0" encoding="utf-8"?>
<!-- Generator: Adobe Illustrator 23.0.0, SVG Export Plug-In . SVG Version: 6.00 Build 0)  -->
<svg version="1.1" id="Layer_1" xmlns="http://www.w3.org/2000/svg" xmlns:xlink="http://www.w3.org/1999/xlink" x="0px" y="0px"
	 viewBox="0 0 2000 1534" style="enable-background:new 0 0 2000 1534;" xml:space="preserve">
<style type="text/css">
	.st0{fill:#F9F9F9;}
	.st1{fill:#FFFFFF;}
</style>
<g>
	<path class="st0" d="M222.06,1092.96l145.29-146.85c2.23-2.26,2.88-5.63,1.66-8.55c-1.22-2.92-4.07-4.82-7.24-4.82H256.45
		c-2.16,0-4.23,0.89-5.71,2.47l-136.36,144.66V940.59c0-4.34-3.51-7.85-7.85-7.85H22.17c-4.34,0-7.85,3.51-7.85,7.85v383.67
		c0,4.34,3.51,7.85,7.85,7.85h84.36c4.34,0,7.85-3.51,7.85-7.85v-120.37l39.34-39.77l110.18,164.5c1.46,2.17,3.91,3.48,6.52,3.48
		h105.85c2.94,0,5.63-1.63,6.97-4.24c1.35-2.61,1.13-5.75-0.57-8.15L222.06,1092.96z"/>
	<path class="st0" d="M528.34,932.74h-84.36c-4.34,0-7.85,3.51-7.85,7.85v383.67c0,4.34,3.51,7.85,7.85,7.85h84.36
		c4.34,0,7.85-3.51,7.85-7.85V940.59C536.19,936.25,532.68,932.74,528.34,932.74z"/>
	<path class="st0" d="M921.6,932.74h-78.99c-4.34,0-7.85,3.51-7.85,7.85v231.63L688.07,936.44c-1.43-2.3-3.95-3.7-6.66-3.7h-83.82
		c-4.34,0-7.85,3.51-7.85,7.85v383.67c0,4.34,3.51,7.85,7.85,7.85h78.99c4.34,0,7.85-3.51,7.85-7.85v-231.07l146.15,235.22
		c1.43,2.3,3.95,3.71,6.67,3.71h84.36c4.34,0,7.85-3.51,7.85-7.85V940.59C929.45,936.25,925.94,932.74,921.6,932.74z"/>
	<path class="st0" d="M1345.32,1108.99h-161.2c-4.34,0-7.85,3.51-7.85,7.85v62.87c0,4.34,3.51,7.85,7.85,7.85h76.02
		c-6.95,43.91-35.3,67.05-82.47,67.05c-89.44,0-96.4-92.29-96.4-120.58c0-29.04,6.96-123.8,96.4-123.8
		c38.25,0,65.03,21.28,73.49,58.38c0.81,3.57,3.99,6.1,7.65,6.1h80.6c2.22,0,4.34-0.94,5.83-2.6c1.49-1.65,2.21-3.86,1.97-6.07
		c-10.27-97.87-95.08-142.44-169.55-142.44c-117.51,0-196.46,84.56-196.46,210.43c0,122,80.79,207.21,196.46,207.21
		c28.12,0,67.2-7.85,100.75-43.14l5.47,27.67c0.73,3.68,3.95,6.33,7.7,6.33h53.73c4.34,0,7.85-3.51,7.85-7.85v-207.42
		C1353.17,1112.5,1349.66,1108.99,1345.32,1108.99z"/>
	<path class="st0" d="M1685.72,1245.48h-179.15V940.59c0-4.34-3.51-7.85-7.85-7.85h-84.36c-4.34,0-7.85,3.51-7.85,7.85v383.67
		c0,4.34,3.51,7.85,7.85,7.85h271.36c4.34,0,7.85-3.51,7.85-7.85v-70.93C1693.56,1248.99,1690.05,1245.48,1685.72,1245.48z"/>
	<path class="st0" d="M1986.67,936.73c-1.4-2.47-4.01-3.99-6.84-3.99h-94.04c-2.78,0-5.35,1.47-6.77,3.87l-82.45,140.07
		l-82.96-140.09c-1.41-2.39-3.98-3.85-6.76-3.85h-95.11c-2.83,0-5.44,1.53-6.84,3.99c-1.39,2.47-1.35,5.49,0.11,7.92l140.2,232.41
		v147.2c0,4.34,3.51,7.85,7.85,7.85h84.36c4.34,0,7.85-3.51,7.85-7.85V1179.2l141.27-234.56
		C1988.01,942.22,1988.06,939.19,1986.67,936.73z"/>
</g>
<path class="st0" d="M956.38,788.49c-1.44,0-2.88-0.14-4.28-0.4c-7.12-1.33-13.15-5.73-16.54-12.08l-0.66-1.23
	c-0.11-0.2-0.2-0.42-0.28-0.65L813.07,398.42l-3.31-10.8c-0.16-0.45-0.36-1.03-0.54-1.62l-73.37-241.51
	c-4.49-14.78,0.2-30.82,11.95-40.85c7.02-5.99,15.98-9.3,25.22-9.3c5.86,0,11.74,1.36,17.01,3.92l92.24,44.92l89.39-103.03
	c7.39-8.51,18.09-13.39,29.35-13.39c11.28,0,21.98,4.89,29.36,13.4l89.36,103.06l92.25-44.89c5.27-2.56,11.14-3.91,16.99-3.91
	c9.25,0,18.21,3.3,25.24,9.31c11.75,10.04,16.44,26.08,11.94,40.86l-65.96,216.83l-10.51,36.27l-32.4,106.35
	c-1.69,6.19-6,11.54-11.8,14.57c-3.36,1.76-7.14,2.69-10.94,2.69l0,0c-2.69,0-5.34-0.45-7.87-1.35l-16.21-5.24l-3.34,39.6
	c0.02,5.11-1.86,10.39-5.29,14.56l-127.4,211.38c-0.2,0.34-0.47,0.65-0.77,0.92l-1.85,1.6
	C967.51,786.46,962.03,788.49,956.38,788.49z M960.65,697.03l88.77-152l3.94-104.39c0.53-2.97,2.02-5,4.14-6.16
	c1.19-0.66,2.55-1,3.92-1c1.01,0,2.01,0.18,2.96,0.55l51.35,18.12l25.19-81.86l-269.49,34.39L960.65,697.03z M856.46,355.19
	l300.98-39.56l45.12-148.58l-75.85,36.92c-3.33,1.62-6.91,2.45-10.6,2.45c-7.04,0-13.72-3.05-18.32-8.36L1001,86.47l-96.79,111.59
	c-4.61,5.31-11.29,8.36-18.32,8.36c-3.7,0-7.27-0.82-10.6-2.45l-75.86-36.92L856.46,355.19z"/>
<g>
	<path class="st0" d="M406.46,1490.99h-9.58l-2.28-10.06c-8.02,9.1-15.33,12.09-25.74,12.09c-25.62,0-40.95-20.35-40.95-44.78
		c0-24.43,15.33-44.78,40.95-44.78c18.68,0,34.36,9.94,36.64,29.21h-14.61c-1.44-11.25-11.25-17-22.03-17
		c-18.32,0-25.98,16.16-25.98,32.57c0,16.4,7.66,32.57,25.98,32.57c15.33,0.24,23.71-8.98,23.95-23.47h-22.75v-11.38h36.4V1490.99z"
		/>
	<path class="st0" d="M458.66,1405.5h61.54v12.93h-46.58v22.39h43.11v12.21h-43.11v25.02h47.42v12.93h-62.38V1405.5z"/>
	<path class="st0" d="M570.01,1405.5h14.97v72.56h43.46v12.93h-58.43V1405.5z"/>
	<path class="st0" d="M697.53,1405.5h15.92l32.93,85.49h-16.04l-8.02-22.63h-34.13l-8.02,22.63h-15.45L697.53,1405.5z
		 M692.26,1456.98h26.1l-12.81-36.76h-0.36L692.26,1456.98z"/>
	<path class="st0" d="M771.29,1405.5h69.21v12.93h-27.18v72.56h-14.97v-72.56h-27.06V1405.5z"/>
	<path class="st0" d="M963.7,1448.24c0,24.43-15.33,44.78-40.95,44.78c-25.62,0-40.95-20.35-40.95-44.78
		c0-24.43,15.33-44.78,40.95-44.78C948.38,1403.46,963.7,1423.81,963.7,1448.24z M896.77,1448.24c0,16.4,7.66,32.57,25.98,32.57
		c18.32,0,25.98-16.16,25.98-32.57c0-16.4-7.66-32.57-25.98-32.57C904.43,1415.67,896.77,1431.84,896.77,1448.24z"/>
	<path class="st0" d="M1128.1,1481.41c-6.35,7.78-14.01,11.26-23.95,11.26c-15.69,0-26.94-9.34-26.94-25.38
		c0-12.09,9.82-19.76,19.64-24.79c-4.43-5.63-8.62-11.25-8.62-18.68c0-12.33,9.34-20.35,20.95-20.35c11.02,0,21.31,6.82,21.31,20.47
		c0,10.06-7.18,17.24-15.45,21.67l13.29,16.04c0.96-2.63,2.04-5.99,2.63-11.5h11.97c-0.84,7.42-2.87,14.97-6.71,20.95l16.4,19.88
		h-16.76L1128.1,1481.41z M1104.03,1451.47c-5.03,3.11-13.17,5.87-13.17,16.04c0,9.22,5.87,14.37,13.77,14.37
		c9.94,0,13.53-6.11,16.16-9.58L1104.03,1451.47z M1100.44,1423.1c0,5.63,4.67,9.94,7.78,14.25c5.15-3.47,10.06-7.06,10.06-13.89
		c0-5.63-3.47-9.82-8.74-9.82C1104.51,1413.64,1100.44,1417.35,1100.44,1423.1z"/>
	<path class="st0" d="M1288.06,1405.5h15.92l32.93,85.49h-16.04l-8.02-22.63h-34.13l-8.02,22.63h-15.45L1288.06,1405.5z
		 M1282.8,1456.98h26.1l-12.81-36.76h-0.36L1282.8,1456.98z"/>
	<path class="st0" d="M1453.78,1458.42c-1.2,20.24-15.33,34.25-35.56,34.48l-3.83,5.03v0.24c0.96-0.36,2.16-0.36,3.95-0.36
		c4.67,0,10.18,2.75,10.18,8.86c0,8.14-7.54,10.78-14.49,10.78c-3.59,0-9.22-0.72-12.33-2.51l2.16-4.79
		c2.51,0.84,5.15,1.92,7.78,1.92c3.35,0,7.3-0.84,7.3-4.91c0-2.99-2.87-4.55-5.51-4.55c-1.56,0-3.23,0.36-4.67,1.2l-2.63-2.27
		l6.59-8.74c-22.75-2.27-36.28-21.67-36.28-44.54c0-24.43,15.33-44.78,40.95-44.78c19.28,0.12,34.48,10.78,36.28,29.21h-14.97
		c-2.51-9.82-8.86-17-21.31-17c-18.32,0-25.98,16.16-25.98,32.57c0,16.4,7.66,32.57,25.98,32.57c13.29,0,20.59-9.94,21.79-22.39
		H1453.78z"/>
	<path class="st0" d="M1526.22,1405.5h15.92l32.93,85.49h-16.04l-8.02-22.63h-34.13l-8.02,22.63h-15.45L1526.22,1405.5z
		 M1520.95,1456.98h26.1l-12.81-36.76h-0.36L1520.95,1456.98z"/>
	<path class="st0" d="M1628.47,1380.47h16.16l-17,17.12h-9.94L1628.47,1380.47z M1619.13,1405.5h14.97v85.49h-14.97V1405.5z"/>
</g>
</svg>
