<svg id="Layer_1" data-name="Layer 1" xmlns="http://www.w3.org/2000/svg" viewBox="0 0 120 120"><defs><style>.cls-1{opacity:0.35;}.cls-2{fill:#a3000b;}</style></defs><title>padrao-02</title><g class="cls-1"><polygon class="cls-2" points="90.34 31.51 96.39 34 96.41 39.34 100.04 39.33 100.04 38.09 100.02 31.57 93.96 29.07 93.94 22.52 87.46 19.85 86.76 19.56 85.38 22.92 90.31 24.95 90.34 31.51"/><polygon class="cls-2" points="111.55 6.61 114.91 8 116.95 3.06 120 3.05 120 0 114.28 0 111.84 5.92 111.55 6.61"/><polygon class="cls-2" points="6 56.98 11.33 56.97 11.32 53.33 10.08 53.34 3.56 53.36 1.06 59.41 0 59.42 0 63.05 3.5 63.04 6 56.98"/><polygon class="cls-2" points="111.84 65.92 111.55 66.61 114.91 68 116.95 63.06 120 63.05 120 59.42 114.51 59.44 111.84 65.92"/><polygon class="cls-2" points="50.73 6.61 54.09 8 56.13 3.06 62.68 3.04 63.93 0 53.46 0 51.02 5.92 50.73 6.61"/><polygon class="cls-2" points="54.09 68 56.13 63.06 62.68 63.04 65.17 56.98 70.51 56.97 70.5 53.33 69.26 53.34 62.74 53.36 60.24 59.41 53.69 59.44 51.02 65.92 50.73 66.61 54.09 68"/><polygon class="cls-2" points="27.21 29.07 27.19 22.52 20.71 19.85 20.01 19.56 18.63 22.92 23.56 24.95 23.59 31.51 29.64 34 29.66 39.34 33.29 39.33 33.29 38.09 33.27 31.57 27.21 29.07"/><polygon class="cls-2" points="27.21 94.48 27.19 87.93 20.71 85.25 20.01 84.97 18.63 88.33 23.56 90.36 23.59 96.91 29.64 99.41 29.66 104.75 33.29 104.73 33.29 103.49 33.27 96.97 27.21 94.48"/><polygon class="cls-2" points="90.34 96.91 96.39 99.41 96.41 104.75 100.04 104.73 100.04 103.49 100.02 96.97 93.96 94.48 93.94 87.93 87.46 85.25 86.76 84.97 85.38 88.33 90.31 90.36 90.34 96.91"/><polygon class="cls-2" points="65.17 116.98 70.51 116.97 70.5 113.33 69.26 113.34 62.74 113.36 60.24 119.41 53.69 119.44 53.46 120 63.93 120 65.17 116.98"/><polygon class="cls-2" points="4.75 0 0 0 0 3.05 3.5 3.04 4.75 0"/><polygon class="cls-2" points="11.33 116.97 11.32 113.33 10.08 113.34 3.56 113.36 1.06 119.41 0 119.42 0 120 4.75 120 6 116.98 11.33 116.97"/><polygon class="cls-2" points="114.28 120 120 120 120 119.42 114.51 119.44 114.28 120"/></g></svg>