<?xml version="1.0" encoding="utf-8"?>
<!-- Generator: Adobe Illustrator 23.0.0, SVG Export Plug-In . SVG Version: 6.00 Build 0)  -->
<svg version="1.1" id="Layer_1" xmlns="http://www.w3.org/2000/svg" xmlns:xlink="http://www.w3.org/1999/xlink" x="0px" y="0px"
	 viewBox="0 0 128 128" style="enable-background:new 0 0 128 128;" xml:space="preserve">
<style type="text/css">
	.st0{fill:none;}
	.st1{fill:#E40000;}
	.st2{display:none;fill:none;stroke:#FF0000;stroke-miterlimit:10;}
</style>
<rect class="st0" width="128" height="128"/>
<path class="st1" d="M57.46,119.81c-0.21,0-0.42-0.02-0.63-0.06c-1.04-0.2-1.93-0.84-2.42-1.77l-0.1-0.18
	c-0.02-0.03-0.03-0.06-0.04-0.09L36.46,62.65l-0.48-1.58c-0.02-0.07-0.05-0.15-0.08-0.24L25.15,25.44
	c-0.66-2.17,0.03-4.52,1.75-5.99c1.03-0.88,2.34-1.36,3.7-1.36c0.86,0,1.72,0.2,2.49,0.58l13.52,6.58l13.1-15.1
	c1.08-1.25,2.65-1.96,4.3-1.96c1.65,0,3.22,0.72,4.3,1.96l13.09,15.1l13.52-6.58c0.77-0.38,1.63-0.57,2.49-0.57
	c1.35,0,2.67,0.48,3.7,1.36c1.72,1.47,2.41,3.82,1.75,5.99l-9.67,31.77l-1.54,5.31L86.9,78.13c-0.25,0.91-0.88,1.69-1.73,2.13
	c-0.49,0.26-1.05,0.39-1.6,0.39l0,0c-0.39,0-0.78-0.07-1.15-0.2l-2.38-0.77l-0.49,5.8c0,0.75-0.27,1.52-0.77,2.13L60.11,118.6
	c-0.03,0.05-0.07,0.1-0.11,0.13l-0.27,0.23C59.09,119.51,58.29,119.81,57.46,119.81z M58.09,106.41L71.1,84.13l0.58-15.3
	c0.08-0.44,0.3-0.73,0.61-0.9c0.17-0.1,0.37-0.15,0.57-0.15c0.15,0,0.29,0.03,0.43,0.08l7.52,2.66l3.69-12l-39.49,5.04L58.09,106.41
	z M42.82,56.32l44.1-5.8l6.61-21.77l-11.11,5.41c-0.49,0.24-1.01,0.36-1.55,0.36c-1.03,0-2.01-0.45-2.68-1.23L64,16.94L49.82,33.29
	c-0.68,0.78-1.65,1.22-2.68,1.22c-0.54,0-1.07-0.12-1.55-0.36l-11.12-5.41L42.82,56.32z"/>
<circle class="st2" cx="64" cy="64" r="64"/>
</svg>
