<svg id="Layer_1" data-name="Layer 1" xmlns="http://www.w3.org/2000/svg" viewBox="0 0 128 128"><defs><style>.cls-1{fill:#e40000;}.cls-2{fill:#f9f9f9;}</style></defs><title>simbolo</title><path class="cls-1" d="M57.13,126.79a6.75,6.75,0,0,1-1.19-.1,6.53,6.53,0,0,1-4.57-3.34l-.11-.2a3.64,3.64,0,0,1-.24-.58L32,63.82l-.51-1.67c0-.1-.07-.21-.1-.32L19.92,24.06a8.91,8.91,0,0,1,12.43-10.6l12.47,6.07L57.38,5.06a8.91,8.91,0,0,1,13.46,0L83.39,19.54l12.47-6.07a8.92,8.92,0,0,1,12.43,10.61L98,58l-1.63,5.64L91.26,80.3A6.51,6.51,0,0,1,85,85a7.12,7.12,0,0,1-1.23-.11l-.22,2.57a6.39,6.39,0,0,1-1.33,3.76L62.38,124.13a3.84,3.84,0,0,1-.67.81l-.32.27A6.55,6.55,0,0,1,57.13,126.79Z"/><path class="cls-2" d="M57.13,124A3.69,3.69,0,0,1,53.87,122l-.1-.19a.54.54,0,0,1-.05-.11L34.71,63l-.51-1.69c0-.07-.06-.16-.09-.25L22.64,23.24A6.07,6.07,0,0,1,31.11,16l14.43,7,14-16.11a6.07,6.07,0,0,1,9.18,0L82.68,23,97.1,16a6.16,6.16,0,0,1,2.66-.61,6.06,6.06,0,0,1,5.81,7.84L95.26,57.16l-1.65,5.68L88.55,79.47A3.7,3.7,0,0,1,85,82.17h0A3.7,3.7,0,0,1,83.76,82l-2.53-.82-.53,6.19a3.61,3.61,0,0,1-.82,2.28L60,122.67a.53.53,0,0,1-.12.14l-.29.25A3.69,3.69,0,0,1,57.13,124Zm.66-14.31L71.68,85.88l.62-16.32a1.29,1.29,0,0,1,.64-1,1.33,1.33,0,0,1,.62-.16,1.25,1.25,0,0,1,.46.09l8,2.84L86,58.55,43.84,63.93ZM41.5,56.19,88.57,50l7.06-23.23L83.77,32.54a3.82,3.82,0,0,1-4.53-.92L64.11,14.16,49,31.62a3.8,3.8,0,0,1-2.87,1.3,3.84,3.84,0,0,1-1.66-.38L32.58,26.77Z"/></svg>